<svg width="46" height="62" viewBox="0 0 46 62" fill="none" xmlns="http://www.w3.org/2000/svg">
<path fill-rule="evenodd" clip-rule="evenodd" d="M23 0C35.7025 0 46 10.7452 46 24C46 27.8737 45.1186 31.5321 43.5566 34.7715C43.4368 35.0595 43.2956 35.3453 43.125 35.624C42.5045 36.7913 41.7937 37.8989 41.002 38.9365L28.0498 59.1279C25.6888 62.8077 20.3112 62.8077 17.9502 59.1279L4.99707 38.9365C4.20537 37.8989 3.49452 36.7913 2.87402 35.624C2.7035 35.3453 2.56214 35.0595 2.44238 34.7715C0.880533 31.5322 0 27.8735 0 24C0 10.7452 10.2975 0 23 0ZM25.3574 19.5938C23.9794 19.3169 22.8292 20.4821 22.8291 21.8877C22.8291 23.2935 23.9987 24.3945 25.3291 24.8486C25.9614 25.0645 26.5665 25.3622 27.1279 25.7373C28.4004 26.5875 29.3918 27.7961 29.9775 29.21C30.5632 30.6238 30.7165 32.1797 30.418 33.6807C30.1194 35.1815 29.3828 36.5604 28.3008 37.6426C27.2187 38.7247 25.8398 39.4621 24.3389 39.7607C22.8378 40.0593 21.2811 39.906 19.8672 39.3203C18.4534 38.7346 17.2447 37.7431 16.3945 36.4707C16.0193 35.9091 15.7217 35.3034 15.5059 34.6709C15.0517 33.3407 13.9514 32.1712 12.5459 32.1709C11.1401 32.1709 9.97484 33.322 10.252 34.7002C10.5807 36.3351 11.2266 37.8987 12.1621 39.2988C13.5718 41.4085 15.5758 43.0525 17.9199 44.0234C20.264 44.9943 22.8436 45.2489 25.332 44.7539C27.8204 44.2589 30.1063 43.0372 31.9004 41.2432C33.6945 39.449 34.9161 37.1624 35.4111 34.6738C35.9061 32.1854 35.6526 29.6058 34.6816 27.2617C33.7107 24.9176 32.0657 22.9145 29.9561 21.5049C28.5559 20.5693 26.9924 19.9225 25.3574 19.5938ZM27.7383 6.97656C25.3941 6.00561 22.8147 5.75208 20.3262 6.24707C17.8377 6.74206 15.5519 7.96374 13.7578 9.75781C11.9637 11.5519 10.7411 13.8377 10.2461 16.3262C9.7511 18.8146 10.0057 21.3942 10.9766 23.7383C11.9475 26.0824 13.5916 28.0864 15.7012 29.4961C17.1013 30.4316 18.6649 31.0775 20.2998 31.4062C21.678 31.6834 22.8291 30.5181 22.8291 29.1123C22.8289 27.7067 21.6594 26.6064 20.3291 26.1523C19.6967 25.9365 19.0919 25.6379 18.5303 25.2627C17.2578 24.4124 16.2654 23.204 15.6797 21.79C15.0941 20.3762 14.9407 18.8202 15.2393 17.3193C15.5379 15.8184 16.2753 14.4396 17.3574 13.3574C18.4396 12.2753 19.8184 11.5388 21.3193 11.2402C22.8203 10.9417 24.3761 11.0941 25.79 11.6797C27.204 12.2654 28.4124 13.2578 29.2627 14.5303C29.6379 15.0918 29.9365 15.6967 30.1523 16.3291C30.6065 17.6595 31.7065 18.8291 33.1123 18.8291C34.518 18.8291 35.683 17.6788 35.4062 16.3008C35.0775 14.666 34.4315 13.1022 33.4961 11.7021C32.0864 9.59245 30.0825 7.94755 27.7383 6.97656Z" fill="#0B5D3B"/>
</svg>
