<svg width="100" height="100" viewBox="0 0 100 100" fill="none" xmlns="http://www.w3.org/2000/svg">
<rect width="100" height="100" rx="50" fill="white"/>
<path d="M50 7C67.6731 7 82 21.9501 82 40.3916C82 45.7561 80.7852 50.8239 78.6309 55.3154C78.4602 55.7356 78.252 56.1504 78.0039 56.5566C77.1403 58.1821 76.151 59.7241 75.0488 61.1689L57.0264 89.2646C53.7415 94.385 46.2585 94.385 42.9736 89.2646L24.9502 61.1689C23.8481 59.7241 22.8586 58.182 21.9951 56.5566C21.7471 56.1504 21.5388 55.7356 21.3682 55.3154C19.2139 50.824 18 45.7559 18 40.3916C18 21.9501 32.3269 7 50 7ZM53.2803 34.2607C51.3628 33.8752 49.7617 35.4963 49.7617 37.4521C49.7618 39.4079 51.3893 40.9385 53.2402 41.5703C54.1201 41.8707 54.9619 42.2856 55.7432 42.8076C57.5136 43.9906 58.8932 45.6724 59.708 47.6396C60.5228 49.6067 60.7366 51.7711 60.3213 53.8594C59.9059 55.9477 58.8805 57.8664 57.375 59.3721C55.8694 60.8777 53.9507 61.9029 51.8623 62.3184C49.7739 62.7338 47.6088 62.5209 45.6416 61.7061C43.6745 60.8912 41.9935 59.5106 40.8105 57.7402C40.2885 56.9589 39.8736 56.1172 39.5732 55.2373C38.9414 53.3863 37.41 51.7598 35.4541 51.7598C33.4985 51.76 31.8784 53.3601 32.2637 55.2773C32.721 57.5521 33.6193 59.7277 34.9209 61.6758C36.8822 64.611 39.6702 66.8991 42.9316 68.25C46.193 69.6008 49.7819 69.9543 53.2441 69.2656C56.7064 68.5769 59.8866 66.8769 62.3828 64.3809C64.879 61.8846 66.5789 58.7036 67.2676 55.2412C67.9562 51.7789 67.6029 48.1901 66.252 44.9287C64.9011 41.6675 62.6136 38.8801 59.6787 36.9189C57.7307 35.6173 55.555 34.7181 53.2803 34.2607ZM56.5928 16.707C53.3313 15.3561 49.7416 15.0027 46.2793 15.6914C42.8171 16.3802 39.6367 18.0801 37.1406 20.5762C34.6445 23.0723 32.9446 26.2527 32.2559 29.7148C31.5672 33.1772 31.9205 36.7669 33.2715 40.0283C34.6224 43.2897 36.9105 46.0769 39.8457 48.0381C41.7936 49.3397 43.9685 50.2389 46.2432 50.6963C48.1607 51.0818 49.7617 49.4608 49.7617 47.5049C49.7617 45.549 48.1352 44.0176 46.2842 43.3857C45.4042 43.0854 44.5617 42.6715 43.7803 42.1494C42.0099 40.9664 40.6303 39.2846 39.8154 37.3174C39.0006 35.3502 38.7877 33.1851 39.2031 31.0967C39.6186 29.0085 40.6439 27.0905 42.1494 25.585C43.655 24.0794 45.5729 23.0541 47.6611 22.6387C49.7495 22.2233 51.9146 22.4361 53.8818 23.251C55.849 24.0658 57.5309 25.4454 58.7139 27.2158C59.236 27.9972 59.6498 28.8398 59.9502 29.7197C60.582 31.5707 62.1135 33.1972 64.0693 33.1973C66.0252 33.1973 67.6463 31.5962 67.2607 29.6787C66.8033 27.4041 65.9041 25.2292 64.6025 23.2812C62.6413 20.3461 59.8541 18.058 56.5928 16.707Z" fill="#0B5D3B"/>
</svg>
